<svg t="1754896248950" class="icon" viewBox="0 0 1024 1024" version="1.1" xmlns="http://www.w3.org/2000/svg" p-id="42786" width="200" height="200"><path d="M490.45 757.79l0.36 0.34c0.25 0.24 0.5 0.48 0.75 0.71l0.07 0.06 0.51 0.44 0.6 0.51 0.12 0.1 0.59 0.46 0.51 0.39 0.17 0.13 0.63 0.44 0.46 0.32 0.22 0.15 0.64 0.4 0.46 0.29 0.25 0.15 0.62 0.34 0.5 0.28 0.26 0.14 0.58 0.29 0.57 0.28 0.25 0.12 0.54 0.23 0.67 0.29 0.23 0.1 0.49 0.18 0.77 0.29 0.19 0.07 0.45 0.14 0.86 0.28 0.16 0.05 0.42 0.11 0.94 0.25h0.13l0.41 0.09 1 0.21h0.11l0.45 0.08 1 0.16h0.1l0.54 0.06 0.9 0.11h0.08l0.76 0.05 0.72 0.05H514.69l0.77-0.06 0.7-0.05h0.09l0.93-0.11 0.51-0.06h0.1l1-0.17 0.42-0.07h0.11l1-0.22 0.39-0.09h0.13l1-0.26 0.4-0.11h0.15l0.89-0.29 0.44-0.14 0.18-0.07 0.79-0.3 0.49-0.19 0.21-0.09 0.67-0.29 0.56-0.24 0.23-0.11 0.56-0.28 0.62-0.31 0.23-0.13 0.47-0.27 0.67-0.38 0.22-0.14 0.42-0.26 0.71-0.45 0.19-0.13 0.39-0.28 0.73-0.51 0.14-0.11 0.43-0.33 0.71-0.55 0.09-0.08 0.56-0.48 0.59-0.51q0.58-0.53 1.13-1.08l188.95-190a32 32 0 0 0-45.38-45.13L544.86 657.64 544 126.93A32 32 0 0 0 512 95h-0.05A32 32 0 0 0 480 127l0.87 531.1L344 522.33a32 32 0 0 0-45.07 45.44z" fill="#2c2c2c" p-id="42787"></path><path d="M927.75 605a32 32 0 0 0-32 32v224h-767.5V637a32 32 0 0 0-64 0v256a32 32 0 0 0 32 32h831.5a32 32 0 0 0 32-32V637a32 32 0 0 0-32-32z" fill="#2c2c2c" p-id="42788"></path></svg>