<svg t="1754896179034" class="icon" viewBox="0 0 1024 1024" version="1.1" xmlns="http://www.w3.org/2000/svg" p-id="39923" width="200" height="200"><path d="M118.272 93.044364c2.792727-0.232727 5.678545 0 8.610909 0.698181l568.459636 137.216a27.461818 27.461818 0 0 1 20.48 21.317819l48.733091 243.712 2.978909-2.885819a27.461818 27.461818 0 0 1 38.81891 0l117.620363 117.620364a27.461818 27.461818 0 0 1 0 38.772364l-274.478545 274.478545a27.461818 27.461818 0 0 1-38.772364 0l-117.620364-117.620363a27.461818 27.461818 0 0 1 0-38.81891l2.885819-2.978909L252.276364 715.869091a27.461818 27.461818 0 0 1-19.874909-16.151273l-1.396364-4.328727L93.696 126.882909A27.648 27.648 0 0 1 93.090909 118.225455L93.090909 117.527273a22.202182 22.202182 0 0 1 0.558546-3.444364l0.372363-1.303273a21.317818 21.317818 0 0 1 0.930909-2.792727l0.651637-1.396364a25.460364 25.460364 0 0 1 1.908363-3.397818l0.279273-0.372363 0.698182-0.930909a27.927273 27.927273 0 0 1 10.053818-8.238546 22.574545 22.574545 0 0 1 4.189091-1.582545l1.349818-0.372364A21.922909 21.922909 0 0 1 117.480727 93.090909h0.605091z m668.672 458.24l-235.659636 235.659636 78.848 78.801455 235.613091-235.613091-78.801455-78.848zM208.756364 169.937455l211.595636 211.642181a105.844364 105.844364 0 1 1-38.772364 38.772364L169.937455 208.756364l110.312727 456.704 262.423273 52.456727 175.243636-175.243636-52.456727-262.469819-456.704-110.266181z m264.517818 252.369454a50.967273 50.967273 0 1 0 0 101.934546 50.967273 50.967273 0 0 0 0-101.934546z" fill="#333333" p-id="39924"></path></svg>