<svg t="1754895998277" class="icon" viewBox="0 0 1024 1024" version="1.1" xmlns="http://www.w3.org/2000/svg" p-id="29636" width="200" height="200"><path d="M895.573333 948.053333c-23.466667 0-42.666667-19.2-42.666666-42.666666 0-133.973333-108.8-242.773333-242.773334-242.773334s-243.2 108.8-243.2 242.773334c0 23.466667-19.2 42.666667-42.666666 42.666666s-42.666667-19.2-42.666667-42.666666c0-180.906667 147.2-328.106667 328.106667-328.106667s328.106667 147.2 328.106666 328.106667c0.426667 23.466667-18.773333 42.666667-42.24 42.666666z" fill="#4D4D4D" p-id="29637"></path><path d="M609.706667 662.613333c-128 0-232.106667-104.106667-232.106667-232.106666 0-128 104.106667-232.106667 232.106667-232.106667 128 0 232.106667 104.106667 232.106666 232.106667 0.426667 127.573333-103.68 232.106667-232.106666 232.106666z m0-379.306666c-81.066667 0-146.773333 66.133333-146.773334 146.773333s66.133333 146.773333 146.773334 146.773333 146.773333-65.706667 146.773333-146.773333-65.706667-146.773333-146.773333-146.773333zM96.426667 844.8c-23.466667 0-42.666667-19.2-42.666667-42.666667 0-129.28 105.386667-234.666667 234.666667-234.666666 23.466667 0 42.666667 19.2 42.666666 42.666666s-19.2 42.666667-42.666666 42.666667c-82.346667 0-149.333333 66.986667-149.333334 149.333333 0 23.466667-18.773333 42.666667-42.666666 42.666667z" fill="#4D4D4D" p-id="29638"></path><path d="M288.853333 567.04c-46.933333 0-84.906667-37.973333-84.906666-84.906667s37.973333-84.906667 84.906666-84.906666c9.386667 0 18.773333 1.706667 27.306667 4.266666 5.546667 2.133333 11.52 2.56 17.066667 2.133334 2.56-27.306667 9.386667-53.333333 19.2-77.653334-2.986667-1.706667-5.546667-3.84-8.533334-5.12-17.92-6.4-36.266667-9.386667-55.04-9.386666-93.866667 0-170.24 76.373333-170.24 170.24s76.373333 170.24 170.24 170.24c23.466667 0 42.666667-19.2 42.666667-42.666667s-19.2-42.24-42.666667-42.24z" fill="#4D4D4D" p-id="29639"></path></svg>